<svg width="39" height="46" viewBox="0 0 39 46" fill="none" xmlns="http://www.w3.org/2000/svg">
<path d="M23.3333 36.5833H35.8333M29.5833 30.3333V42.8333M2.5 40.75V36.5833C2.5 34.3732 3.37797 32.2536 4.94078 30.6908C6.50358 29.128 8.6232 28.25 10.8333 28.25H19.1667M6.66667 11.5833C6.66667 13.7935 7.54464 15.9131 9.10744 17.4759C10.6702 19.0387 12.7899 19.9167 15 19.9167C17.2101 19.9167 19.3298 19.0387 20.8926 17.4759C22.4554 15.9131 23.3333 13.7935 23.3333 11.5833C23.3333 9.3732 22.4554 7.25358 20.8926 5.69078C19.3298 4.12797 17.2101 3.25 15 3.25C12.7899 3.25 10.6702 4.12797 9.10744 5.69078C7.54464 7.25358 6.66667 9.3732 6.66667 11.5833Z" stroke="white" stroke-width="5" stroke-linecap="round" stroke-linejoin="round"/>
</svg>
