<svg width="21" height="20" viewBox="0 0 21 20" fill="none" xmlns="http://www.w3.org/2000/svg">
<path d="M0.875977 17.8571V2.14286C0.875977 0.959822 1.8358 0 3.01883 0L18.7331 0C19.9162 0 20.876 0.959822 20.876 2.14286V17.8571C20.876 19.0402 19.9162 20 18.7331 20L3.01883 20C1.8358 20 0.875977 19.0402 0.875977 17.8571ZM16.7465 11.5848L11.2554 6.09375C11.0456 5.88393 10.7063 5.88393 10.4965 6.09375L5.00544 11.5848C4.66615 11.9241 4.90723 12.5 5.3849 12.5L16.367 12.5C16.8447 12.5 17.0858 11.9241 16.7465 11.5848Z" fill="#004AAD"/>
</svg>
