<svg width="58" height="52" viewBox="0 0 58 52" fill="none" xmlns="http://www.w3.org/2000/svg">
<path d="M24.5679 28.6667L20.8506 33.4987C20.7585 33.6178 20.6986 33.7586 20.6765 33.9075C20.6545 34.0565 20.671 34.2086 20.7245 34.3493C20.778 34.4901 20.8667 34.6147 20.9822 34.7114C21.0976 34.808 21.236 34.8734 21.3839 34.9013L25.2799 35.728C25.4359 35.7573 25.581 35.8282 25.6999 35.9332C25.8189 36.0383 25.9072 36.1735 25.9556 36.3246C26.0039 36.4757 26.0105 36.6371 25.9747 36.7917C25.9388 36.9463 25.8619 37.0883 25.7519 37.2027L21.1386 42M7.33325 20.6667H39.3333" stroke="white" stroke-width="4" stroke-linecap="round" stroke-linejoin="round"/>
<path d="M2 50H44.6667M39.3333 31.3333H43.7787C44.6053 31.3333 45.0187 31.3333 45.3573 31.424C45.8094 31.5452 46.2216 31.7832 46.5525 32.1141C46.8835 32.4451 47.1215 32.8573 47.2427 33.3093C47.3333 33.648 47.3333 34.0613 47.3333 34.888V38C47.3333 39.0609 47.7548 40.0783 48.5049 40.8284C49.2551 41.5786 50.2725 42 51.3333 42C52.3942 42 53.4116 41.5786 54.1618 40.8284C54.9119 40.0783 55.3333 39.0609 55.3333 38V21.2293C55.3333 19.6267 55.3333 18.824 55.104 18.0693C54.8747 17.3147 54.432 16.6453 53.5413 15.312L51.48 12.2187C51.0246 11.5363 50.408 10.9768 49.6846 10.5898C48.9613 10.2028 48.1537 10.0002 47.3333 10M7.33333 50V18C7.33333 10.4587 7.33333 6.68533 9.67733 4.344C12.0187 2 15.792 2 23.3333 2C30.8747 2 34.648 2 36.9893 4.344C39.3333 6.68533 39.3333 10.4587 39.3333 18V50H7.33333Z" stroke="white" stroke-width="4" stroke-linecap="round" stroke-linejoin="round"/>
</svg>
