<svg width="42" height="32" viewBox="0 0 42 32" fill="none" xmlns="http://www.w3.org/2000/svg">
<path d="M3.82905 18.4066C2.48504 20.837 2.10797 23.8461 2.00157 25.3375C1.99432 25.4585 2.01222 25.5797 2.05412 25.6934C2.09602 25.8071 2.16102 25.9109 2.24502 25.9982C2.32903 26.0855 2.43021 26.1545 2.5422 26.2008C2.65419 26.2471 2.77456 26.2697 2.89571 26.2671H5.69946M3.82905 18.4066C3.82905 12.5359 5.53706 5.45183 8.95494 2.39422C9.26129 2.13225 9.65328 1.99206 10.0563 2.00035H19.007C20.0897 2.00035 21.1667 2.21875 22.0739 2.80675C24.3121 4.25903 27.6926 7.18971 30.5655 11.6865C30.8025 12.0599 31.1572 12.3399 31.5735 12.4911C33.2255 13.0921 35.066 13.9228 36.2439 14.4772C37.0391 14.8505 37.6738 15.5039 37.9743 16.329C38.8031 18.6007 39.2716 21.1356 39.3314 25.3319C39.3329 25.4545 39.3099 25.5762 39.2639 25.6898C39.2179 25.8035 39.1498 25.9069 39.0634 25.9939C38.9771 26.0809 38.8743 26.1499 38.761 26.1968C38.6477 26.2437 38.5262 26.2676 38.4036 26.2671H35.5999M3.82905 18.4066C4.50105 17.1895 5.41759 16.118 6.66453 15.4535M28.1257 26.2671H13.1736M13.1998 26.2671C13.1998 27.2573 12.8064 28.2069 12.1063 28.907C11.4062 29.6072 10.4566 30.0005 9.46641 30.0005C8.47626 30.0005 7.52667 29.6072 6.82653 28.907C6.12639 28.2069 5.73306 27.2573 5.73306 26.2671C5.73306 25.277 6.12639 24.3274 6.82653 23.6273C7.52667 22.9271 8.47626 22.5338 9.46641 22.5338C10.4566 22.5338 11.4062 22.9271 12.1063 23.6273C12.8064 24.3274 13.1998 25.277 13.1998 26.2671Z" stroke="#004AAD" stroke-width="4" stroke-linecap="round" stroke-linejoin="round"/>
<path d="M30.9331 12.2671C25.3331 10.4004 18.7997 9.46707 11.333 10.4004C11.333 6.66706 13.1997 2.9337 14.133 2.00037M13.1997 14.1338H15.0664M35.5998 26.2672C35.5998 27.2573 35.2065 28.2069 34.5063 28.907C33.8062 29.6072 32.8566 30.0005 31.8665 30.0005C30.8763 30.0005 29.9267 29.6072 29.2266 28.907C28.5264 28.2069 28.1331 27.2573 28.1331 26.2672C28.1331 25.277 28.5264 24.3274 29.2266 23.6273C29.9267 22.9271 30.8763 22.5338 31.8665 22.5338C32.8566 22.5338 33.8062 22.9271 34.5063 23.6273C35.2065 24.3274 35.5998 25.277 35.5998 26.2672Z" stroke="#004AAD" stroke-width="4" stroke-linecap="round" stroke-linejoin="round"/>
</svg>
