<svg width="46" height="50" viewBox="0 0 46 50" fill="none" xmlns="http://www.w3.org/2000/svg">
<path d="M40.5 10.05L39.0533 33.1075C38.6847 38.9978 38.5003 41.9441 37 44.0624C36.2593 45.1093 35.3058 45.9928 34.2 46.6568C31.967 48 28.9733 48 22.986 48C16.9893 48 13.991 48 11.7533 46.6545C10.6471 45.9892 9.6935 45.104 8.95333 44.0555C7.45533 41.9349 7.27333 38.984 6.914 33.0845L5.5 10.05M2 10.05H44M32.464 10.05L30.8703 6.8116C29.8133 4.6588 29.2837 3.5847 28.3713 2.9131C28.1687 2.76433 27.9541 2.63202 27.7297 2.5175C26.7193 2 25.506 2 23.0817 2C20.5943 2 19.3507 2 18.3217 2.5382C18.0942 2.65829 17.8772 2.79676 17.673 2.9522C16.7513 3.6491 16.2357 4.7646 15.2043 6.9933L13.7903 10.05M17.1667 35.35V21.55M28.8333 35.35V21.55" stroke="#004AAD" stroke-width="3.67" stroke-linecap="round" stroke-linejoin="round"/>
</svg>
