<svg width="40" height="40" viewBox="0 0 40 40" fill="none" xmlns="http://www.w3.org/2000/svg">
<path d="M21.7089 5.5853L34.2505 18.127M23.5005 37.8353H37.8339M23.6331 5.37926C24.9679 3.93339 25.6344 3.21134 26.3439 2.78851C27.1815 2.28717 28.1363 2.01542 29.1124 2.00064C30.0884 1.98585 31.0511 2.22856 31.9034 2.7043C32.6255 3.10563 33.3135 3.80797 34.6895 5.21264C36.0655 6.61909 36.7535 7.32322 37.1441 8.05959C37.6101 8.93645 37.8471 9.91683 37.833 10.9097C37.8189 11.9026 37.5542 12.8759 37.0634 13.7392C36.6514 14.463 35.9436 15.1456 34.5264 16.5091L17.6794 32.7362C14.9955 35.3216 13.6535 36.6134 11.9765 37.2691C10.2995 37.9249 8.4559 37.8747 4.76865 37.7798L4.26698 37.7654C3.1454 37.7368 2.58281 37.7224 2.25852 37.3516C1.93065 36.9807 1.97544 36.4091 2.06502 35.2661L2.1134 34.6461C2.36423 31.4283 2.48965 29.8194 3.11673 28.3717C3.74381 26.9241 4.82956 25.7505 6.99748 23.4016L23.6331 5.37926Z" stroke="#004AAD" stroke-width="3.67" stroke-linecap="round" stroke-linejoin="round"/>
</svg>
