<svg width="42" height="58" viewBox="0 0 42 58" fill="none" xmlns="http://www.w3.org/2000/svg">
<path d="M20.6672 27.3334C24.3491 27.3334 27.3338 24.3486 27.3338 20.6667C27.3338 16.9848 24.3491 14.0001 20.6672 14.0001C16.9853 14.0001 14.0005 16.9848 14.0005 20.6667C14.0005 24.3486 16.9853 27.3334 20.6672 27.3334Z" stroke="white" stroke-width="4" stroke-linecap="round" stroke-linejoin="round"/>
<path d="M12.6672 42.0001H12.623M20.6938 55.3334C19.7498 55.3334 19.3098 54.9307 18.8245 53.5761C17.5445 49.0694 15.1498 45.1761 12.2458 41.5201C9.6165 38.0081 5.73917 34.0107 3.72317 29.4561C-1.87683 17.0801 6.80317 1.97874 20.6485 2.00008C34.8752 1.96008 43.4298 17.6027 37.3498 30.1201C35.5635 33.2778 33.4746 36.2544 31.1125 39.0081C27.4298 43.3574 24.1205 48.0667 22.5498 53.5841C22.1872 54.6481 21.7232 55.3334 20.6938 55.3334Z" stroke="white" stroke-width="4" stroke-linecap="round" stroke-linejoin="round"/>
</svg>
