<svg width="47" height="47" viewBox="0 0 47 47" fill="none" xmlns="http://www.w3.org/2000/svg">
<path d="M28.0079 28.0079L33.4262 33.4262M33.281 37.815C32.9677 37.5209 32.7167 37.1668 32.543 36.7737C32.3692 36.3807 32.2762 35.9568 32.2694 35.5271C32.2626 35.0974 32.3423 34.6708 32.5036 34.2725C32.6649 33.8742 32.9046 33.5124 33.2085 33.2085C33.5124 32.9046 33.8742 32.6649 34.2725 32.5036C34.6708 32.3423 35.0974 32.2626 35.5271 32.2694C35.9568 32.2762 36.3807 32.3692 36.7737 32.543C37.1668 32.7167 37.5209 32.9677 37.815 33.281L44.408 39.874C44.7213 40.1681 44.9723 40.5222 45.146 40.9153C45.3198 41.3083 45.4128 41.7322 45.4196 42.1619C45.4264 42.5916 45.3467 43.0182 45.1854 43.4165C45.0241 43.8148 44.7844 44.1766 44.4805 44.4805C44.1766 44.7844 43.8148 45.0241 43.4165 45.1854C43.0182 45.3467 42.5916 45.4264 42.1619 45.4196C41.7322 45.4128 41.3083 45.3198 40.9153 45.146C40.5222 44.9723 40.1681 44.7213 39.874 44.408L33.281 37.815ZM32.3425 17.1713C32.3425 13.1476 30.7441 9.28872 27.899 6.44356C25.0538 3.5984 21.1949 2 17.1713 2C13.1476 2 9.28872 3.5984 6.44356 6.44356C3.5984 9.28872 2 13.1476 2 17.1713C2 21.1949 3.5984 25.0538 6.44356 27.899C9.28872 30.7441 13.1476 32.3425 17.1713 32.3425C21.1949 32.3425 25.0538 30.7441 27.899 27.899C30.7441 25.0538 32.3425 21.1949 32.3425 17.1713Z" stroke="#004AAD" stroke-width="2.66667" stroke-linecap="round" stroke-linejoin="round"/>
</svg>
