<svg width="39" height="48" viewBox="0 0 39 48" fill="none" xmlns="http://www.w3.org/2000/svg">
<path d="M3 42.7895V38.3684C3 36.0233 3.92714 33.7743 5.57746 32.1161C7.22778 30.4579 9.46609 29.5263 11.8 29.5263H20.6C21.1896 29.5263 21.7623 29.5823 22.3182 29.6943M31.6 31.7368L27.2 38.3684H36L31.6 45M7.4 11.8421C7.4 14.1872 8.32714 16.4362 9.97746 18.0944C11.6278 19.7526 13.8661 20.6842 16.2 20.6842C18.5339 20.6842 20.7722 19.7526 22.4225 18.0944C24.0729 16.4362 25 14.1872 25 11.8421C25 9.49703 24.0729 7.24801 22.4225 5.58979C20.7722 3.93158 18.5339 3 16.2 3C13.8661 3 11.6278 3.93158 9.97746 5.58979C8.32714 7.24801 7.4 9.49703 7.4 11.8421Z" stroke="white" stroke-width="5" stroke-linecap="round" stroke-linejoin="round"/>
</svg>
